# xmcd CD database file
#
# Track frame offsets:
#	150
#	20114
#	34315
#	57913
#	81254
#	93577
#	118238
#	135166
#	153131
#	179047
#	198740
#
# Disc length: 2809 seconds
#
# Revision: 1
# Processed by: cddbd v1.5.2PL0 Copyright (c) Steve Scherf et al.
# Submitted via: CDex 1.51
#
DISCID=9a0af70b
DTITLE=Vestbo Trio - Less talk...
DYEAR=2012
DGENRE=Jazz
TTITLE0=Japanese cherry trees
TTITLE1=Suzy Q
TTITLE2=It's simplein a good way
TTITLE3=Breathe
TTITLE4=Dad
TTITLE5=Behing the 8-ball
TTITLE6=Girlfriend
TTITLE7=The prairie song
TTITLE8=Closer to you
TTITLE9=High heels (on brooklyn bridge)
TTITLE10=Building snowmen
EXTD=YEAR: 2012
EXTT0=
EXTT1=
EXTT2=
EXTT3=
EXTT4=
EXTT5=
EXTT6=
EXTT7=
EXTT8=
EXTT9=
EXTT10=
PLAYORDER=
